PathFileType	4	(x/y/z)	S06_M20_T22
DataRate	CameraRate	NumFrames	NumMarkers	Units	OrigDataRate	OrigDataStartFrame	OrigNumFrames
240	240	9	51	mm	240	192	511
Frame#	Time	Sternum			R.Acromium			L.Acromium			Top.Head			R.ASIS			L.ASIS			R.PSIS			L.PSIS			R.Great.Tro			L.Great.Tro			R.Iliac.Crest			L.Iliac.Crest			V.Sacral			R.Thigh.Upper.Post			R.Thigh.Lower.Ant			R.Thigh.Lower.Post			R.Thigh.Upper.Ant			R.Knee.Lat			R.Knee.Med			R.Shank.Upper.Post			R.Shank.Lower.Ant			R.Shank.Lower.Post			R.Shank.Upper.Ant			R.Ankle.Lat			R.Ankle.Med			R.Heel.Upper			R.Heel.Med			R.Heel.Lat			R.Toe.Lat			R.Toe.Med			R.Toe.Tip			L.Thigh.Upper.Post			L.Thigh.Lower.Ant			L.Thigh.Lower.Post			L.Thigh.Upper.Ant			L.Knee.Lat			L.Knee.Med			L.Shank.Upper.Post			L.Shank.Lower.Ant			L.Shank.Lower.Post			L.Shank.Upper.Ant			L.Ankle.Lat			L.Ankle.Med			L.Heel.Upper			L.Heel.Med			L.Heel.Lat			L.Toe.Lat			L.Toe.Med			L.Toe.Tip			Cervical.Spine			Back			
		X1	Y1	Z1	X2	Y2	Z2	X3	Y3	Z3	X4	Y4	Z4	X5	Y5	Z5	X6	Y6	Z6	X7	Y7	Z7	X8	Y8	Z8	X9	Y9	Z9	X10	Y10	Z10	X11	Y11	Z11	X12	Y12	Z12	X13	Y13	Z13	X14	Y14	Z14	X15	Y15	Z15	X16	Y16	Z16	X17	Y17	Z17	X18	Y18	Z18	X19	Y19	Z19	X20	Y20	Z20	X21	Y21	Z21	X22	Y22	Z22	X23	Y23	Z23	X24	Y24	Z24	X25	Y25	Z25	X26	Y26	Z26	X27	Y27	Z27	X28	Y28	Z28	X29	Y29	Z29	X30	Y30	Z30	X31	Y31	Z31	X32	Y32	Z32	X33	Y33	Z33	X34	Y34	Z34	X35	Y35	Z35	X36	Y36	Z36	X37	Y37	Z37	X38	Y38	Z38	X39	Y39	Z39	X40	Y40	Z40	X41	Y41	Z41	X42	Y42	Z42	X43	Y43	Z43	X44	Y44	Z44	X45	Y45	Z45	X46	Y46	Z46	X47	Y47	Z47	X48	Y48	Z48	X49	Y49	Z49	X50	Y50	Z50	X51	Y51	Z51	

192	0.79583	-514.62	1282	319.33	-649.9	1479.7	495.82	-668.12	1483.9	145.1	-617.97	1797.7	321.02	-544.89	1050.5	440.84	-546.43	1034.9	186.83	NaN	NaN	NaN	-748.05	1056.1	271.08	-594.6	974.57	492.74	-654	959.95	137.4	-634.02	1113.3	475.36	-618.86	1105.9	151.15	-760.42	1020.3	315.69	-542.84	727.9	476.65	-471.84	662.33	437.3	-536.82	641.39	452.47	-474.59	751.35	458.69	-490	539.96	436.15	-488.15	549.28	307.82	-506.5	307	424.25	-438.86	251.36	400.98	-502.29	231.05	405.79	-445.12	326.07	417.95	-457.53	105.93	373.72	-438.22	121.38	291.24	-513.04	71.629	316.82	-501.1	43.047	285.42	-506.62	38.254	349.72	-331.21	38.413	399.92	-302.67	59.634	283.59	-239.76	76.253	333.32	-636.46	702.15	133.7	-586.1	610.7	169.43	-660.72	615.07	144.09	-566.2	703.33	154.29	-701.53	528.36	157.62	-645.15	507.87	267.23	-890.55	408.42	183.98	-897.97	320.65	177.22	-946.61	364.91	204.89	-843.38	366.1	162.98	-1022.1	235.95	202.14	-990.21	238.3	288.81	-1068	292.81	251.91	-1087.6	283.82	288.82	-1094.7	278.6	227.31	-1062.9	100.7	197.34	-1035.2	94.689	310.92	-1007.2	31.992	260.07	-714.85	1530.5	322.55	-758.99	1253.8	317.35
193	0.8	-509.22	1282.3	319.45	-644.06	1480.1	496.01	-662.67	1484.4	145.33	-612.39	1798.2	321.31	-539.57	1051.2	441.42	-541.07	1035.2	187.37	NaN	NaN	NaN	-742.76	1056.3	271.3	-589.51	975.18	493.17	-647.8	959.84	137.86	-628.82	1113.9	475.63	-613.57	1106.1	151.47	-755.11	1020.6	315.98	-538.14	728.34	477.13	-467.16	662.57	438	-532.28	641.84	452.92	-469.76	751.56	459.45	-485.78	540.18	436.56	-483.44	549.72	308.23	-503.95	307.33	424.32	-436.73	251.2	401.03	-500.34	231.37	405.73	-442.39	325.92	418.1	-456.71	106.06	373.52	-437.32	121.3	291.11	-512.72	71.933	316.79	-500.9	43.273	285.41	-506.38	38.573	349.71	-330.89	37.902	399.92	-302.2	58.265	283.16	-239.13	74.269	332.82	-626.83	701.82	133.5	-575.74	610.99	169.74	-650.17	614.46	143.73	-556.87	703.83	154.86	-690.1	527.6	156.99	-634.55	507.52	267.25	-879.66	409.35	182.64	-887.71	321.53	176.33	-936.16	366.4	203.48	-832.73	366.53	162.22	-1012.9	238.33	200.95	-981.33	240.46	287.82	-1058	296.03	250.57	-1077.9	287.32	287.37	-1084.8	282.22	225.83	-1055.4	103.51	196.2	-1028.2	97.009	309.73	-1001.2	32.478	258.96	-709.23	1531.1	322.84	-753.59	1254.4	317.63
194	0.80417	-503.87	1282.7	319.55	-638.25	1480.6	496.19	-657.24	1485	145.54	-606.81	1798.6	321.6	-534.29	1051.8	442	-535.76	1035.6	187.9	NaN	NaN	NaN	-737.52	1056.5	271.55	-584.44	975.77	493.59	-641.63	959.76	138.31	-623.66	1114.4	475.9	-608.33	1106.4	151.8	-749.85	1020.8	316.28	-533.51	728.76	477.56	-462.57	662.77	438.64	-527.83	642.26	453.32	-465	751.74	460.15	-481.67	540.38	436.9	-478.87	550.14	308.58	-501.51	307.65	424.3	-434.69	251.04	401.03	-498.48	231.7	405.59	-439.76	325.76	418.19	-455.93	106.22	373.27	-436.47	121.23	290.92	-512.43	72.22	316.72	-500.72	43.474	285.38	-506.16	38.892	349.68	-330.59	37.475	399.91	-301.76	56.946	282.72	-238.55	72.385	332.31	-617.17	701.57	133.36	-565.38	611.37	170.15	-639.59	613.94	143.43	-547.53	704.41	155.53	-678.65	526.95	156.43	-623.99	507.29	267.39	-868.71	410.28	181.35	-877.32	322.4	175.49	-925.63	367.85	202.09	-821.98	366.99	161.52	-1003.5	240.65	199.77	-972.3	242.59	286.82	-1048	299.02	249.25	-1068.2	290.5	285.91	-1074.9	285.55	224.35	-1047.3	106.21	194.97	-1020.7	99.243	308.5	-994.51	33.158	257.79	-703.63	1531.6	323.11	-748.24	1255	317.91
195	0.80833	-498.56	1283	319.65	-632.48	1481.1	496.35	-651.86	1485.5	145.74	-601.24	1799.1	321.87	-529.04	1052.5	442.57	-530.48	1036	188.41	NaN	NaN	NaN	-732.32	1056.7	271.82	-579.39	976.34	494	-635.5	959.72	138.76	-618.52	1115	476.19	-603.14	1106.7	152.13	-744.63	1021.1	316.61	-528.95	729.17	477.95	-458.06	662.95	439.22	-523.45	642.67	453.66	-460.3	751.9	460.8	-477.65	540.56	437.18	-474.43	550.52	308.86	-499.16	307.97	424.2	-432.73	250.89	400.99	-496.71	232.03	405.36	-437.24	325.61	418.24	-455.2	106.39	372.97	-435.66	121.15	290.68	-512.15	72.492	316.61	-500.55	43.652	285.33	-505.94	39.213	349.64	-330.32	37.127	399.88	-301.36	55.678	282.28	-238.03	70.598	331.8	-607.49	701.41	133.27	-555.03	611.85	170.67	-629	613.53	143.2	-538.21	705.09	156.3	-667.2	526.39	155.96	-613.49	507.18	267.63	-857.7	411.2	180.1	-866.81	323.27	174.69	-915.02	369.26	200.73	-811.16	367.47	160.86	-993.88	242.89	198.6	-963.13	244.68	285.82	-1038.1	301.77	247.94	-1058.5	293.38	284.44	-1064.9	288.58	222.86	-1038.8	108.8	193.67	-1012.7	101.38	307.23	-987.14	34.022	256.56	-698.07	1532.2	323.37	-742.92	1255.6	318.2
196	0.8125	-493.29	1283.4	319.74	-626.75	1481.6	496.5	-646.53	1486.1	145.93	-595.66	1799.5	322.14	-523.81	1053.1	443.12	-525.24	1036.5	188.9	NaN	NaN	NaN	-727.17	1056.9	272.11	-574.36	976.9	494.39	-629.41	959.72	139.2	-613.39	1115.6	476.48	-598.01	1107	152.46	-739.44	1021.4	316.96	-524.46	729.55	478.28	-453.63	663.11	439.74	-519.16	643.07	453.96	-455.68	752.04	461.39	-473.74	540.72	437.41	-470.13	550.87	309.09	-496.92	308.28	424.02	-430.86	250.75	400.91	-495.02	232.36	405.07	-434.83	325.45	418.23	-454.49	106.57	372.63	-434.88	121.07	290.4	-511.9	72.75	316.48	-500.39	43.81	285.26	-505.74	39.535	349.58	-330.08	36.848	399.83	-300.98	54.459	281.83	-237.55	68.907	331.28	-597.8	701.34	133.25	-544.72	612.43	171.28	-618.4	613.22	143.02	-528.9	705.86	157.16	-655.74	525.94	155.56	-603.05	507.19	267.96	-846.66	412.11	178.9	-856.19	324.13	173.94	-904.35	370.65	199.4	-800.26	367.99	160.26	-984.15	245.06	197.45	-953.81	246.72	284.82	-1028.2	304.28	246.65	-1048.9	295.93	282.96	-1055	291.3	221.36	-1029.7	111.24	192.29	-1004.3	103.41	305.92	-979.05	35.054	255.26	-692.54	1532.7	323.62	-737.65	1256.2	318.5
197	0.81667	-488.07	1283.7	319.82	-621.05	1482.1	496.64	-641.23	1486.6	146.11	-590.09	1800	322.4	-518.62	1053.7	443.66	-520.03	1036.9	189.37	NaN	NaN	NaN	-722.05	1057.2	272.42	-569.33	977.45	494.76	-623.37	959.77	139.64	-608.28	1116.1	476.78	-592.93	1107.3	152.8	-734.28	1021.8	317.33	-520.05	729.92	478.57	-449.29	663.24	440.2	-514.95	643.44	454.2	-451.12	752.15	461.92	-469.93	540.86	437.58	-465.96	551.21	309.27	-494.78	308.59	423.77	-429.07	250.61	400.79	-493.41	232.68	404.7	-432.51	325.3	418.19	-453.82	106.76	372.25	-434.15	121	290.09	-511.65	72.996	316.33	-500.25	43.949	285.18	-505.54	39.858	349.51	-329.85	36.632	399.77	-300.62	53.291	281.39	-237.11	67.312	330.77	-588.1	701.36	133.28	-534.43	613.11	171.97	-607.8	613.02	142.9	-519.62	706.73	158.11	-644.3	525.6	155.24	-592.66	507.3	268.37	-835.59	413.03	177.75	-845.48	324.99	173.24	-893.63	371.99	198.11	-789.31	368.53	159.72	-974.26	247.15	196.31	-944.36	248.71	283.81	-1018.4	306.54	245.37	-1039.4	298.17	281.47	-1045.1	293.73	219.86	-1020.1	113.53	190.84	-995.41	105.31	304.57	-970.24	36.23	253.91	-687.04	1533.3	323.85	-732.42	1256.8	318.8
198	0.82083	-482.88	1284.1	319.89	-615.39	1482.6	496.76	-635.99	1487.2	146.28	-584.53	1800.5	322.65	-513.45	1054.3	444.17	-514.85	1037.4	189.82	NaN	NaN	NaN	-716.97	1057.4	272.75	-564.32	977.99	495.13	-617.4	959.86	140.07	-603.17	1116.7	477.09	-587.9	1107.6	153.14	-729.15	1022.1	317.72	-515.7	730.28	478.81	-445.03	663.35	440.61	-510.82	643.81	454.4	-446.64	752.25	462.4	-466.21	540.99	437.7	-461.92	551.51	309.4	-492.74	308.9	423.46	-427.36	250.47	400.65	-491.88	233.01	404.29	-430.3	325.15	418.11	-453.18	106.95	371.84	-433.44	120.92	289.74	-511.43	73.232	316.15	-500.12	44.073	285.08	-505.36	40.18	349.43	-329.64	36.47	399.69	-300.29	52.174	280.96	-236.71	65.812	330.27	-578.42	701.49	133.37	-524.19	613.89	172.74	-597.22	612.93	142.85	-510.38	707.69	159.13	-632.88	525.38	155	-582.32	507.53	268.86	-824.5	413.94	176.68	-834.69	325.85	172.58	-882.85	373.29	196.87	-778.32	369.1	159.23	-964.21	249.13	195.18	-934.79	250.63	282.8	-1008.7	308.55	244.1	-1029.9	300.09	279.96	-1035.1	295.84	218.36	-1009.9	115.66	189.32	-986.08	107.09	303.18	-960.74	37.523	252.51	-681.58	1533.9	324.08	-727.22	1257.4	319.11
199	0.825	-477.73	1284.5	319.95	-609.77	1483.1	496.88	-630.78	1487.7	146.44	-578.96	1801	322.88	-508.31	1054.9	444.66	-509.7	1038	190.23	NaN	NaN	NaN	-711.93	1057.7	273.1	-559.31	978.52	495.47	-611.48	959.99	140.5	-598.08	1117.3	477.4	-582.91	1108	153.48	-724.05	1022.5	318.13	-511.43	730.63	479.01	-440.85	663.45	440.95	-506.76	644.16	454.56	-442.22	752.34	462.81	-462.6	541.11	437.77	-458.01	551.8	309.49	-490.78	309.21	423.1	-425.73	250.34	400.48	-490.42	233.33	403.83	-428.18	325	418.01	-452.57	107.15	371.41	-432.78	120.84	289.37	-511.21	73.459	315.95	-499.99	44.185	284.97	-505.18	40.501	349.33	-329.45	36.357	399.61	-299.98	51.112	280.54	-236.34	64.408	329.78	-568.75	701.71	133.52	-513.99	614.77	173.58	-586.66	612.95	142.86	-501.17	708.75	160.21	-621.5	525.26	154.84	-572.03	507.86	269.4	-813.39	414.84	175.66	-823.82	326.71	171.96	-872.04	374.53	195.67	-767.28	369.71	158.79	-954.02	251.01	194.08	-925.09	252.48	281.78	-999.04	310.32	242.83	-1020.4	301.69	278.44	-1025.2	297.65	216.85	-999.32	117.63	187.73	-976.32	108.72	301.76	-950.56	38.905	251.07	-676.15	1534.5	324.29	-722.06	1258	319.43
200	0.82917	-472.61	1284.8	320	-604.18	1483.7	496.99	-625.62	1488.3	146.59	-573.39	1801.5	323.1	-503.18	1055.5	445.12	-504.58	1038.5	190.61	NaN	NaN	NaN	-706.91	1058	273.46	-554.31	979.06	495.8	-605.63	960.17	140.93	-592.98	1117.9	477.71	-577.97	1108.4	153.82	-718.97	1022.8	318.55	-507.24	730.97	479.16	-436.76	663.52	441.25	-502.79	644.51	454.68	-437.87	752.41	463.17	-459.09	541.21	437.8	-454.22	552.07	309.55	-488.91	309.51	422.71	-424.17	250.22	400.3	-489.03	233.65	403.34	-426.14	324.86	417.88	-451.99	107.35	370.97	-432.14	120.77	288.99	-511	73.677	315.75	-499.87	44.286	284.86	-505.01	40.819	349.23	-329.28	36.284	399.51	-299.69	50.107	280.13	-236	63.099	329.32	-559.12	702.04	133.74	-503.84	615.75	174.49	-576.14	613.09	142.93	-492.01	709.9	161.35	-610.15	525.27	154.75	-561.78	508.3	270	-802.28	415.73	174.72	-812.88	327.55	171.39	-861.19	375.73	194.53	-756.21	370.34	158.4	-943.67	252.77	192.98	-915.27	254.23	280.77	-989.43	311.83	241.58	-1011	302.97	276.9	-1015.3	299.15	215.33	-988.22	119.43	186.08	-966.14	110.2	300.3	-939.74	40.346	249.59	-670.76	1535.1	324.49	-716.93	1258.7	319.75
